<svg width="30" height="30" viewBox="0 0 30 30" fill="none" xmlns="http://www.w3.org/2000/svg">
<path d="M25 23.2116C25 24.64 23.4057 25.4899 22.2186 24.6943L10.0771 16.5423C9.8347 16.3795 9.63586 16.1599 9.49804 15.9024C9.36023 15.645 9.28765 15.3578 9.28667 15.0658C9.28568 14.7738 9.35631 14.4861 9.49238 14.2277C9.62845 13.9694 9.8258 13.7484 10.0671 13.584L22.21 5.30914C22.4784 5.12663 22.7914 5.0207 23.1154 5.00274C23.4395 4.98478 23.7623 5.05546 24.0492 5.20719C24.3361 5.35892 24.5762 5.58595 24.7437 5.8639C24.9113 6.14184 24.9999 6.46018 25 6.7847L25 23.2116ZM5 24.2858C5 24.4752 5.07525 24.6568 5.20921 24.7908C5.34316 24.9247 5.52484 25 5.71428 25C5.90373 25 6.08541 24.9247 6.21936 24.7908C6.35332 24.6568 6.42857 24.4752 6.42857 24.2858L6.42857 5.71624C6.42857 5.52682 6.35332 5.34515 6.21936 5.21121C6.08541 5.07727 5.90373 5.00203 5.71429 5.00203C5.52485 5.00203 5.34316 5.07727 5.20921 5.21121C5.07525 5.34515 5 5.52682 5 5.71624L5 24.2858Z" fill="white"/>
</svg>
