<svg width="30" height="30" viewBox="0 0 30 30" fill="none" xmlns="http://www.w3.org/2000/svg">
<path d="M5 6.78842C5 5.35999 6.59429 4.51008 7.78143 5.30571L19.9229 13.4577C20.1653 13.6205 20.3641 13.8401 20.502 14.0976C20.6398 14.355 20.7123 14.6422 20.7133 14.9342C20.7143 15.2262 20.6437 15.5139 20.5076 15.7723C20.3715 16.0306 20.1742 16.2516 19.9329 16.416L7.79 24.6909C7.52164 24.8734 7.20861 24.9793 6.88456 24.9973C6.56051 25.0152 6.23769 24.9445 5.95079 24.7928C5.6639 24.6411 5.42379 24.414 5.25627 24.1361C5.08875 23.8582 5.00015 23.5398 5 23.2153V6.78842V6.78842ZM25 5.71424C25 5.52482 24.9247 5.34316 24.7908 5.20922C24.6568 5.07528 24.4752 5.00003 24.2857 5.00003C24.0963 5.00003 23.9146 5.07528 23.7806 5.20922C23.6467 5.34316 23.5714 5.52482 23.5714 5.71424V24.2838C23.5714 24.4732 23.6467 24.6548 23.7806 24.7888C23.9146 24.9227 24.0963 24.998 24.2857 24.998C24.4752 24.998 24.6568 24.9227 24.7908 24.7888C24.9247 24.6548 25 24.4732 25 24.2838V5.71424Z" fill="white"/>
</svg>
