<svg width="30" height="30" viewBox="0 0 30 30" fill="none" xmlns="http://www.w3.org/2000/svg">
<path d="M6.28296 15.4685L6.21466 15.4344C6.1595 15.3948 6.11254 15.3446 6.07668 15.2865C6.02651 15.2053 6 15.1118 6 15.0165C6 14.9213 6.02651 14.8278 6.07668 14.7466C6.12684 14.6653 6.19872 14.5995 6.28438 14.5566L23.25 6.06027L23.2501 6.06031L23.2582 6.05612C23.3362 6.01616 23.4233 5.99694 23.511 6.00039C23.5987 6.00384 23.6839 6.02983 23.7585 6.07578C23.8331 6.12171 23.8944 6.18602 23.9367 6.26238C23.9789 6.33874 24.0007 6.42463 24 6.51175L24 6.51175L24 6.52001L23.9999 23.4971C23.998 23.5811 23.9755 23.6633 23.9342 23.7367C23.8922 23.8116 23.832 23.8748 23.7591 23.9207C23.6862 23.9665 23.6029 23.9934 23.5167 23.9989C23.4342 24.0042 23.3518 23.9897 23.2763 23.9566L6.28296 15.4685Z" stroke="white" stroke-width="2"/>
</svg>
