<svg width="30" height="30" viewBox="0 0 30 30" fill="none" xmlns="http://www.w3.org/2000/svg">
<path d="M23.717 14.5315L23.7853 14.5656C23.8405 14.6052 23.8875 14.6554 23.9233 14.7135C23.9735 14.7947 24 14.8882 24 14.9835C24 15.0787 23.9735 15.1722 23.9233 15.2534C23.8732 15.3347 23.8013 15.4005 23.7156 15.4434L6.74996 23.9397L6.74994 23.9397L6.74175 23.9439C6.66376 23.9838 6.5767 24.0031 6.48901 23.9996C6.40132 23.9962 6.31606 23.9702 6.24148 23.9242C6.16692 23.8783 6.10559 23.814 6.06333 23.7376C6.02108 23.6613 5.99929 23.5754 6.00001 23.4883L6.00005 23.4883L6.00005 23.48L6.00005 6.50287C6.00202 6.41892 6.02455 6.33666 6.06577 6.26328C6.10781 6.18844 6.16798 6.12518 6.2409 6.07934C6.31383 6.0335 6.39715 6.00656 6.48328 6.00106C6.56575 5.99578 6.64821 6.01033 6.72374 6.04336L23.717 14.5315Z" stroke="white" stroke-width="2"/>
</svg>
