<svg width="30" height="30" viewBox="0 0 30 30" fill="none" xmlns="http://www.w3.org/2000/svg">
  <path
    d="M9.375 5C10.2701 5 11.1286 5.35119 11.7615 5.97631C12.3944 6.60143 12.75 7.44928 12.75 8.33333V21.6667C12.75 22.5507 12.3944 23.3986 11.7615 24.0237C11.1286 24.6488 10.2701 25 9.375 25C8.47989 25 7.62145 24.6488 6.98851 24.0237C6.35558 23.3986 6 22.5507 6 21.6667V8.33333C6 7.44928 6.35558 6.60143 6.98851 5.97631C7.62145 5.35119 8.47989 5 9.375 5V5ZM20.625 5C21.5201 5 22.3786 5.35119 23.0115 5.97631C23.6444 6.60143 24 7.44928 24 8.33333V21.6667C24 22.5507 23.6444 23.3986 23.0115 24.0237C22.3786 24.6488 21.5201 25 20.625 25C19.7299 25 18.8714 24.6488 18.2385 24.0237C17.6056 23.3986 17.25 22.5507 17.25 21.6667V8.33333C17.25 7.44928 17.6056 6.60143 18.2385 5.97631C18.8714 5.35119 19.7299 5 20.625 5Z"
    fill="white" />
</svg>