<svg width="30" height="30" viewBox="0 0 30 30" fill="none" xmlns="http://www.w3.org/2000/svg">
  <path
    d="M24.1639 13.6369L7.15379 5.14036C6.92431 5.03415 6.67189 4.98696 6.4195 5.00309C6.1671 5.01922 5.92276 5.09816 5.7087 5.23272C5.49465 5.36728 5.31768 5.55319 5.19391 5.77352C5.07014 5.99385 5.0035 6.24161 5.00005 6.49424V23.48C4.99791 23.7393 5.06277 23.9948 5.18836 24.2218C5.31395 24.4487 5.49602 24.6395 5.71698 24.7756C5.93794 24.9118 6.19032 24.9886 6.44971 24.9988C6.70911 25.009 6.96675 24.9522 7.19774 24.8339L24.1639 16.3373C24.4152 16.2113 24.6265 16.0179 24.7742 15.7789C24.9218 15.5398 25 15.2644 25 14.9835C25 14.7025 24.9218 14.4271 24.7742 14.1881C24.6265 13.949 24.4152 13.7556 24.1639 13.6296V13.6369Z"
    fill="white" />
</svg>